<svg xmlns="http://www.w3.org/2000/svg" width="600" height="400"><g transform="translate(40,10)"><g transform="translate(0,280)" fill="none" font-size="10" font-family="sans-serif" text-anchor="middle"><path class="domain" stroke="currentColor" d="M0.5,6V0.5H550.5V6"></path><g class="tick" opacity="1" transform="translate(79.60247862867979,0)"><line stroke="currentColor" y2="6"></line><text fill="currentColor" y="9" dy="0.71em">50,000</text></g><g class="tick" opacity="1" transform="translate(161.08758167029646,0)"><line stroke="currentColor" y2="6"></line><text fill="currentColor" y="9" dy="0.71em">100,000</text></g><g class="tick" opacity="1" transform="translate(242.57268471191313,0)"><line stroke="currentColor" y2="6"></line><text fill="currentColor" y="9" dy="0.71em">150,000</text></g><g class="tick" opacity="1" transform="translate(324.0577877535298,0)"><line stroke="currentColor" y2="6"></line><text fill="currentColor" y="9" dy="0.71em">200,000</text></g><g class="tick" opacity="1" transform="translate(405.54289079514643,0)"><line stroke="currentColor" y2="6"></line><text fill="currentColor" y="9" dy="0.71em">250,000</text></g><g class="tick" opacity="1" transform="translate(487.02799383676313,0)"><line stroke="currentColor" y2="6"></line><text fill="currentColor" y="9" dy="0.71em">300,000</text></g></g><g fill="none" font-size="10" font-family="sans-serif" text-anchor="end"><path class="domain" stroke="currentColor" d="M-6,280.5H0.5V0.5H-6"></path><g class="tick" opacity="1" transform="translate(0,280.5)"><line stroke="currentColor" x2="-6"></line><text fill="currentColor" x="-9" dy="0.32em">0</text></g><g class="tick" opacity="1" transform="translate(0,251.8891585347162)"><line stroke="currentColor" x2="-6"></line><text fill="currentColor" x="-9" dy="0.32em">2</text></g><g class="tick" opacity="1" transform="translate(0,223.27831706943238)"><line stroke="currentColor" x2="-6"></line><text fill="currentColor" x="-9" dy="0.32em">4</text></g><g class="tick" opacity="1" transform="translate(0,194.66747560414856)"><line stroke="currentColor" x2="-6"></line><text fill="currentColor" x="-9" dy="0.32em">6</text></g><g class="tick" opacity="1" transform="translate(0,166.05663413886475)"><line stroke="currentColor" x2="-6"></line><text fill="currentColor" x="-9" dy="0.32em">8</text></g><g class="tick" opacity="1" transform="translate(0,137.44579267358094)"><line stroke="currentColor" x2="-6"></line><text fill="currentColor" x="-9" dy="0.32em">10</text></g><g class="tick" opacity="1" transform="translate(0,108.83495120829714)"><line stroke="currentColor" x2="-6"></line><text fill="currentColor" x="-9" dy="0.32em">12</text></g><g class="tick" opacity="1" transform="translate(0,80.22410974301333)"><line stroke="currentColor" x2="-6"></line><text fill="currentColor" x="-9" dy="0.32em">14</text></g><g class="tick" opacity="1" transform="translate(0,51.613268277729524)"><line stroke="currentColor" x2="-6"></line><text fill="currentColor" x="-9" dy="0.32em">16</text></g><g class="tick" opacity="1" transform="translate(0,23.002426812445716)"><line stroke="currentColor" x2="-6"></line><text fill="currentColor" x="-9" dy="0.32em">18</text></g></g><path fill="none" stroke="#66a61e" stroke-width="3" d="M0,236.0251366678588L172.6213016874824,156.61574618096355L550,0"></path><circle fill="#66a61e" stroke="none" cx="0" cy="236.0251366678588" r="3"></circle><circle fill="#66a61e" stroke="none" cx="172.6213016874824" cy="156.61574618096355" r="3"></circle><circle fill="#66a61e" stroke="none" cx="550" cy="0" r="3"></circle><circle cx="10" cy="323.75" r="7" style="fill: rgb(102, 166, 30);"></circle><circle cx="10" cy="323.75" r="7" style="fill: rgb(102, 166, 30);"></circle><circle cx="10" cy="323.75" r="7" style="fill: rgb(102, 166, 30);"></circle><circle cx="10" cy="323.75" r="7" style="fill: rgb(102, 166, 30);"></circle><text x="25" y="323.75" text-anchor="left" style="fill: rgb(102, 166, 30); alignment-baseline: middle;">stark</text><text x="25" y="323.75" text-anchor="left" style="fill: rgb(102, 166, 30); alignment-baseline: middle;">stark</text><text x="25" y="323.75" text-anchor="left" style="fill: rgb(102, 166, 30); alignment-baseline: middle;">stark</text><text x="25" y="323.75" text-anchor="left" style="fill: rgb(102, 166, 30); alignment-baseline: middle;">stark</text><path fill="none" stroke="#e6ab02" stroke-width="3" d="M0,233.49307719818117L172.6213016874824,151.3942676135493L550,33.73218208756962"></path><circle fill="#e6ab02" stroke="none" cx="0" cy="233.49307719818117" r="3"></circle><circle fill="#e6ab02" stroke="none" cx="172.6213016874824" cy="151.3942676135493" r="3"></circle><circle fill="#e6ab02" stroke="none" cx="550" cy="33.73218208756962" r="3"></circle><circle cx="10" cy="348.75" r="7" style="fill: rgb(230, 171, 2);"></circle><circle cx="10" cy="348.75" r="7" style="fill: rgb(230, 171, 2);"></circle><circle cx="10" cy="348.75" r="7" style="fill: rgb(230, 171, 2);"></circle><circle cx="10" cy="348.75" r="7" style="fill: rgb(230, 171, 2);"></circle><text x="25" y="348.75" text-anchor="left" style="fill: rgb(230, 171, 2); alignment-baseline: middle;">bartik</text><text x="25" y="348.75" text-anchor="left" style="fill: rgb(230, 171, 2); alignment-baseline: middle;">bartik</text><text x="25" y="348.75" text-anchor="left" style="fill: rgb(230, 171, 2); alignment-baseline: middle;">bartik</text><text x="25" y="348.75" text-anchor="left" style="fill: rgb(230, 171, 2); alignment-baseline: middle;">bartik</text><path fill="none" stroke="#a6761d" stroke-width="3" d="M0,230.21713585040618L172.6213016874824,148.18985336943746L550,26.22183620293265"></path><circle fill="#a6761d" stroke="none" cx="0" cy="230.21713585040618" r="3"></circle><circle fill="#a6761d" stroke="none" cx="172.6213016874824" cy="148.18985336943746" r="3"></circle><circle fill="#a6761d" stroke="none" cx="550" cy="26.22183620293265" r="3"></circle><circle cx="257.5" cy="323.75" r="7" style="fill: rgb(166, 118, 29);"></circle><circle cx="257.5" cy="323.75" r="7" style="fill: rgb(166, 118, 29);"></circle><circle cx="257.5" cy="323.75" r="7" style="fill: rgb(166, 118, 29);"></circle><circle cx="257.5" cy="323.75" r="7" style="fill: rgb(166, 118, 29);"></circle><text x="272.5" y="323.75" text-anchor="left" style="fill: rgb(166, 118, 29); alignment-baseline: middle;">carapace</text><text x="272.5" y="323.75" text-anchor="left" style="fill: rgb(166, 118, 29); alignment-baseline: middle;">carapace</text><text x="272.5" y="323.75" text-anchor="left" style="fill: rgb(166, 118, 29); alignment-baseline: middle;">carapace</text><text x="272.5" y="323.75" text-anchor="left" style="fill: rgb(166, 118, 29); alignment-baseline: middle;">carapace</text><path fill="none" stroke="#666666" stroke-width="3" d="M0,234.7948704848516L172.6213016874824,153.4113319368518L550,32.91677310580905"></path><circle fill="#666666" stroke="none" cx="0" cy="234.7948704848516" r="3"></circle><circle fill="#666666" stroke="none" cx="172.6213016874824" cy="153.4113319368518" r="3"></circle><circle fill="#666666" stroke="none" cx="550" cy="32.91677310580905" r="3"></circle><circle cx="257.5" cy="348.75" r="7" style="fill: rgb(102, 102, 102);"></circle><circle cx="257.5" cy="348.75" r="7" style="fill: rgb(102, 102, 102);"></circle><circle cx="257.5" cy="348.75" r="7" style="fill: rgb(102, 102, 102);"></circle><circle cx="257.5" cy="348.75" r="7" style="fill: rgb(102, 102, 102);"></circle><text x="272.5" y="348.75" text-anchor="left" style="fill: rgb(102, 102, 102); alignment-baseline: middle;">drupal8_parallax_theme</text><text x="272.5" y="348.75" text-anchor="left" style="fill: rgb(102, 102, 102); alignment-baseline: middle;">drupal8_parallax_theme</text><text x="272.5" y="348.75" text-anchor="left" style="fill: rgb(102, 102, 102); alignment-baseline: middle;">drupal8_parallax_theme</text><text x="272.5" y="348.75" text-anchor="left" style="fill: rgb(102, 102, 102); alignment-baseline: middle;">drupal8_parallax_theme</text></g></svg>