<svg xmlns="http://www.w3.org/2000/svg" width="600" height="400"><g transform="translate(40,10)"><g transform="translate(0,280)" fill="none" font-size="10" font-family="sans-serif" text-anchor="middle"><path class="domain" stroke="currentColor" d="M0.5,6V0.5H550.5V6"></path><g class="tick" opacity="1" transform="translate(79.60247862867979,0)"><line stroke="currentColor" y2="6"></line><text fill="currentColor" y="9" dy="0.71em">50,000</text></g><g class="tick" opacity="1" transform="translate(161.08758167029646,0)"><line stroke="currentColor" y2="6"></line><text fill="currentColor" y="9" dy="0.71em">100,000</text></g><g class="tick" opacity="1" transform="translate(242.57268471191313,0)"><line stroke="currentColor" y2="6"></line><text fill="currentColor" y="9" dy="0.71em">150,000</text></g><g class="tick" opacity="1" transform="translate(324.0577877535298,0)"><line stroke="currentColor" y2="6"></line><text fill="currentColor" y="9" dy="0.71em">200,000</text></g><g class="tick" opacity="1" transform="translate(405.54289079514643,0)"><line stroke="currentColor" y2="6"></line><text fill="currentColor" y="9" dy="0.71em">250,000</text></g><g class="tick" opacity="1" transform="translate(487.02799383676313,0)"><line stroke="currentColor" y2="6"></line><text fill="currentColor" y="9" dy="0.71em">300,000</text></g></g><g fill="none" font-size="10" font-family="sans-serif" text-anchor="end"><path class="domain" stroke="currentColor" d="M-6,280.5H0.5V0.5H-6"></path><g class="tick" opacity="1" transform="translate(0,280.5)"><line stroke="currentColor" x2="-6"></line><text fill="currentColor" x="-9" dy="0.32em">0</text></g><g class="tick" opacity="1" transform="translate(0,255.30881691408007)"><line stroke="currentColor" x2="-6"></line><text fill="currentColor" x="-9" dy="0.32em">2</text></g><g class="tick" opacity="1" transform="translate(0,230.11763382816014)"><line stroke="currentColor" x2="-6"></line><text fill="currentColor" x="-9" dy="0.32em">4</text></g><g class="tick" opacity="1" transform="translate(0,204.9264507422402)"><line stroke="currentColor" x2="-6"></line><text fill="currentColor" x="-9" dy="0.32em">6</text></g><g class="tick" opacity="1" transform="translate(0,179.73526765632027)"><line stroke="currentColor" x2="-6"></line><text fill="currentColor" x="-9" dy="0.32em">8</text></g><g class="tick" opacity="1" transform="translate(0,154.54408457040034)"><line stroke="currentColor" x2="-6"></line><text fill="currentColor" x="-9" dy="0.32em">10</text></g><g class="tick" opacity="1" transform="translate(0,129.35290148448044)"><line stroke="currentColor" x2="-6"></line><text fill="currentColor" x="-9" dy="0.32em">12</text></g><g class="tick" opacity="1" transform="translate(0,104.16171839856052)"><line stroke="currentColor" x2="-6"></line><text fill="currentColor" x="-9" dy="0.32em">14</text></g><g class="tick" opacity="1" transform="translate(0,78.97053531264056)"><line stroke="currentColor" x2="-6"></line><text fill="currentColor" x="-9" dy="0.32em">16</text></g><g class="tick" opacity="1" transform="translate(0,53.779352226720654)"><line stroke="currentColor" x2="-6"></line><text fill="currentColor" x="-9" dy="0.32em">18</text></g><g class="tick" opacity="1" transform="translate(0,28.588169140800737)"><line stroke="currentColor" x2="-6"></line><text fill="currentColor" x="-9" dy="0.32em">20</text></g><g class="tick" opacity="1" transform="translate(0,3.396986054880788)"><line stroke="currentColor" x2="-6"></line><text fill="currentColor" x="-9" dy="0.32em">22</text></g></g><path fill="none" stroke="#66a61e" stroke-width="3" d="M0,238.39676113360323L172.6213016874824,188.85829959514172L550,24.813315339631114"></path><circle fill="#66a61e" stroke="none" cx="0" cy="238.39676113360323" r="3"></circle><circle fill="#66a61e" stroke="none" cx="172.6213016874824" cy="188.85829959514172" r="3"></circle><circle fill="#66a61e" stroke="none" cx="550" cy="24.813315339631114" r="3"></circle><circle cx="10" cy="323.75" r="7" style="fill: rgb(102, 166, 30);"></circle><circle cx="10" cy="323.75" r="7" style="fill: rgb(102, 166, 30);"></circle><circle cx="10" cy="323.75" r="7" style="fill: rgb(102, 166, 30);"></circle><circle cx="10" cy="323.75" r="7" style="fill: rgb(102, 166, 30);"></circle><text x="25" y="323.75" text-anchor="left" style="fill: rgb(102, 166, 30); alignment-baseline: middle;">stark</text><text x="25" y="323.75" text-anchor="left" style="fill: rgb(102, 166, 30); alignment-baseline: middle;">stark</text><text x="25" y="323.75" text-anchor="left" style="fill: rgb(102, 166, 30); alignment-baseline: middle;">stark</text><text x="25" y="323.75" text-anchor="left" style="fill: rgb(102, 166, 30); alignment-baseline: middle;">stark</text><path fill="none" stroke="#e6ab02" stroke-width="3" d="M0,236.57040035987404L172.6213016874824,187.09491677912732L550,34.28520017993704"></path><circle fill="#e6ab02" stroke="none" cx="0" cy="236.57040035987404" r="3"></circle><circle fill="#e6ab02" stroke="none" cx="172.6213016874824" cy="187.09491677912732" r="3"></circle><circle fill="#e6ab02" stroke="none" cx="550" cy="34.28520017993704" r="3"></circle><circle cx="10" cy="348.75" r="7" style="fill: rgb(230, 171, 2);"></circle><circle cx="10" cy="348.75" r="7" style="fill: rgb(230, 171, 2);"></circle><circle cx="10" cy="348.75" r="7" style="fill: rgb(230, 171, 2);"></circle><circle cx="10" cy="348.75" r="7" style="fill: rgb(230, 171, 2);"></circle><text x="25" y="348.75" text-anchor="left" style="fill: rgb(230, 171, 2); alignment-baseline: middle;">bartik</text><text x="25" y="348.75" text-anchor="left" style="fill: rgb(230, 171, 2); alignment-baseline: middle;">bartik</text><text x="25" y="348.75" text-anchor="left" style="fill: rgb(230, 171, 2); alignment-baseline: middle;">bartik</text><text x="25" y="348.75" text-anchor="left" style="fill: rgb(230, 171, 2); alignment-baseline: middle;">bartik</text><path fill="none" stroke="#a6761d" stroke-width="3" d="M0,233.81196581196582L172.6213016874824,184.76473234367973L550,0"></path><circle fill="#a6761d" stroke="none" cx="0" cy="233.81196581196582" r="3"></circle><circle fill="#a6761d" stroke="none" cx="172.6213016874824" cy="184.76473234367973" r="3"></circle><circle fill="#a6761d" stroke="none" cx="550" cy="0" r="3"></circle><circle cx="257.5" cy="323.75" r="7" style="fill: rgb(166, 118, 29);"></circle><circle cx="257.5" cy="323.75" r="7" style="fill: rgb(166, 118, 29);"></circle><circle cx="257.5" cy="323.75" r="7" style="fill: rgb(166, 118, 29);"></circle><circle cx="257.5" cy="323.75" r="7" style="fill: rgb(166, 118, 29);"></circle><text x="272.5" y="323.75" text-anchor="left" style="fill: rgb(166, 118, 29); alignment-baseline: middle;">carapace</text><text x="272.5" y="323.75" text-anchor="left" style="fill: rgb(166, 118, 29); alignment-baseline: middle;">carapace</text><text x="272.5" y="323.75" text-anchor="left" style="fill: rgb(166, 118, 29); alignment-baseline: middle;">carapace</text><text x="272.5" y="323.75" text-anchor="left" style="fill: rgb(166, 118, 29); alignment-baseline: middle;">carapace</text><path fill="none" stroke="#666666" stroke-width="3" d="M0,233.52226720647772L172.6213016874824,183.00134952766533L550,1.2847503373819347"></path><circle fill="#666666" stroke="none" cx="0" cy="233.52226720647772" r="3"></circle><circle fill="#666666" stroke="none" cx="172.6213016874824" cy="183.00134952766533" r="3"></circle><circle fill="#666666" stroke="none" cx="550" cy="1.2847503373819347" r="3"></circle><circle cx="257.5" cy="348.75" r="7" style="fill: rgb(102, 102, 102);"></circle><circle cx="257.5" cy="348.75" r="7" style="fill: rgb(102, 102, 102);"></circle><circle cx="257.5" cy="348.75" r="7" style="fill: rgb(102, 102, 102);"></circle><circle cx="257.5" cy="348.75" r="7" style="fill: rgb(102, 102, 102);"></circle><text x="272.5" y="348.75" text-anchor="left" style="fill: rgb(102, 102, 102); alignment-baseline: middle;">drupal8_parallax_theme</text><text x="272.5" y="348.75" text-anchor="left" style="fill: rgb(102, 102, 102); alignment-baseline: middle;">drupal8_parallax_theme</text><text x="272.5" y="348.75" text-anchor="left" style="fill: rgb(102, 102, 102); alignment-baseline: middle;">drupal8_parallax_theme</text><text x="272.5" y="348.75" text-anchor="left" style="fill: rgb(102, 102, 102); alignment-baseline: middle;">drupal8_parallax_theme</text></g></svg>