<svg xmlns="http://www.w3.org/2000/svg" width="600" height="400"><g transform="translate(40,10)"><g transform="translate(0,280)" fill="none" font-size="10" font-family="sans-serif" text-anchor="middle"><path class="domain" stroke="currentColor" d="M0.5,6V0.5H550.5V6"></path><g class="tick" opacity="1" transform="translate(79.60247862867979,0)"><line stroke="currentColor" y2="6"></line><text fill="currentColor" y="9" dy="0.71em">50,000</text></g><g class="tick" opacity="1" transform="translate(161.08758167029646,0)"><line stroke="currentColor" y2="6"></line><text fill="currentColor" y="9" dy="0.71em">100,000</text></g><g class="tick" opacity="1" transform="translate(242.57268471191313,0)"><line stroke="currentColor" y2="6"></line><text fill="currentColor" y="9" dy="0.71em">150,000</text></g><g class="tick" opacity="1" transform="translate(324.0577877535298,0)"><line stroke="currentColor" y2="6"></line><text fill="currentColor" y="9" dy="0.71em">200,000</text></g><g class="tick" opacity="1" transform="translate(405.54289079514643,0)"><line stroke="currentColor" y2="6"></line><text fill="currentColor" y="9" dy="0.71em">250,000</text></g><g class="tick" opacity="1" transform="translate(487.02799383676313,0)"><line stroke="currentColor" y2="6"></line><text fill="currentColor" y="9" dy="0.71em">300,000</text></g></g><g fill="none" font-size="10" font-family="sans-serif" text-anchor="end"><path class="domain" stroke="currentColor" d="M-6,280.5H0.5V0.5H-6"></path><g class="tick" opacity="1" transform="translate(0,280.5)"><line stroke="currentColor" x2="-6"></line><text fill="currentColor" x="-9" dy="0.32em">0</text></g><g class="tick" opacity="1" transform="translate(0,255.19258266713064)"><line stroke="currentColor" x2="-6"></line><text fill="currentColor" x="-9" dy="0.32em">2</text></g><g class="tick" opacity="1" transform="translate(0,229.88516533426127)"><line stroke="currentColor" x2="-6"></line><text fill="currentColor" x="-9" dy="0.32em">4</text></g><g class="tick" opacity="1" transform="translate(0,204.57774800139188)"><line stroke="currentColor" x2="-6"></line><text fill="currentColor" x="-9" dy="0.32em">6</text></g><g class="tick" opacity="1" transform="translate(0,179.27033066852252)"><line stroke="currentColor" x2="-6"></line><text fill="currentColor" x="-9" dy="0.32em">8</text></g><g class="tick" opacity="1" transform="translate(0,153.96291333565318)"><line stroke="currentColor" x2="-6"></line><text fill="currentColor" x="-9" dy="0.32em">10</text></g><g class="tick" opacity="1" transform="translate(0,128.65549600278382)"><line stroke="currentColor" x2="-6"></line><text fill="currentColor" x="-9" dy="0.32em">12</text></g><g class="tick" opacity="1" transform="translate(0,103.34807866991446)"><line stroke="currentColor" x2="-6"></line><text fill="currentColor" x="-9" dy="0.32em">14</text></g><g class="tick" opacity="1" transform="translate(0,78.04066133704508)"><line stroke="currentColor" x2="-6"></line><text fill="currentColor" x="-9" dy="0.32em">16</text></g><g class="tick" opacity="1" transform="translate(0,52.73324400417572)"><line stroke="currentColor" x2="-6"></line><text fill="currentColor" x="-9" dy="0.32em">18</text></g><g class="tick" opacity="1" transform="translate(0,27.425826671306375)"><line stroke="currentColor" x2="-6"></line><text fill="currentColor" x="-9" dy="0.32em">20</text></g><g class="tick" opacity="1" transform="translate(0,2.118409338437008)"><line stroke="currentColor" x2="-6"></line><text fill="currentColor" x="-9" dy="0.32em">22</text></g></g><path fill="none" stroke="#fc8d62" stroke-width="3" d="M0,242.20843369682618L172.6213016874824,241.67697793283594L550,242.45265027408837"></path><circle fill="#fc8d62" stroke="none" cx="0" cy="242.20843369682618" r="3"></circle><circle fill="#fc8d62" stroke="none" cx="172.6213016874824" cy="241.67697793283594" r="3"></circle><circle fill="#fc8d62" stroke="none" cx="550" cy="242.45265027408837" r="3"></circle><circle cx="10" cy="323.75" r="7" style="fill: rgb(252, 141, 98);"></circle><circle cx="10" cy="323.75" r="7" style="fill: rgb(252, 141, 98);"></circle><circle cx="10" cy="323.75" r="7" style="fill: rgb(252, 141, 98);"></circle><circle cx="10" cy="323.75" r="7" style="fill: rgb(252, 141, 98);"></circle><circle cx="10" cy="323.75" r="7" style="fill: rgb(252, 141, 98);"></circle><circle cx="10" cy="323.75" r="7" style="fill: rgb(252, 141, 98);"></circle><text x="25" y="323.75" text-anchor="left" style="fill: rgb(252, 141, 98); alignment-baseline: middle;">Simple Objects</text><text x="25" y="323.75" text-anchor="left" style="fill: rgb(252, 141, 98); alignment-baseline: middle;">Simple Objects</text><text x="25" y="323.75" text-anchor="left" style="fill: rgb(252, 141, 98); alignment-baseline: middle;">Simple Objects</text><text x="25" y="323.75" text-anchor="left" style="fill: rgb(252, 141, 98); alignment-baseline: middle;">Simple Objects</text><text x="25" y="323.75" text-anchor="left" style="fill: rgb(252, 141, 98); alignment-baseline: middle;">Simple Objects</text><text x="25" y="323.75" text-anchor="left" style="fill: rgb(252, 141, 98); alignment-baseline: middle;">Simple Objects</text><path fill="none" stroke="#8da0cb" stroke-width="3" d="M0,242.0553238219623L172.6213016874824,241.04176175778088L550,241.63395532337006"></path><circle fill="#8da0cb" stroke="none" cx="0" cy="242.0553238219623" r="3"></circle><circle fill="#8da0cb" stroke="none" cx="172.6213016874824" cy="241.04176175778088" r="3"></circle><circle fill="#8da0cb" stroke="none" cx="550" cy="241.63395532337006" r="3"></circle><circle cx="10" cy="348.75" r="7" style="fill: rgb(141, 160, 203);"></circle><circle cx="10" cy="348.75" r="7" style="fill: rgb(141, 160, 203);"></circle><circle cx="10" cy="348.75" r="7" style="fill: rgb(141, 160, 203);"></circle><circle cx="10" cy="348.75" r="7" style="fill: rgb(141, 160, 203);"></circle><circle cx="10" cy="348.75" r="7" style="fill: rgb(141, 160, 203);"></circle><circle cx="10" cy="348.75" r="7" style="fill: rgb(141, 160, 203);"></circle><text x="25" y="348.75" text-anchor="left" style="fill: rgb(141, 160, 203); alignment-baseline: middle;">Complex Objects</text><text x="25" y="348.75" text-anchor="left" style="fill: rgb(141, 160, 203); alignment-baseline: middle;">Complex Objects</text><text x="25" y="348.75" text-anchor="left" style="fill: rgb(141, 160, 203); alignment-baseline: middle;">Complex Objects</text><text x="25" y="348.75" text-anchor="left" style="fill: rgb(141, 160, 203); alignment-baseline: middle;">Complex Objects</text><text x="25" y="348.75" text-anchor="left" style="fill: rgb(141, 160, 203); alignment-baseline: middle;">Complex Objects</text><text x="25" y="348.75" text-anchor="left" style="fill: rgb(141, 160, 203); alignment-baseline: middle;">Complex Objects</text><path fill="none" stroke="#e78ac3" stroke-width="3" d="M0,242.13124607396094L172.6213016874824,230.65433231350468L550,226.18757315425322"></path><circle fill="#e78ac3" stroke="none" cx="0" cy="242.13124607396094" r="3"></circle><circle fill="#e78ac3" stroke="none" cx="172.6213016874824" cy="230.65433231350468" r="3"></circle><circle fill="#e78ac3" stroke="none" cx="550" cy="226.18757315425322" r="3"></circle><circle cx="10" cy="373.75" r="7" style="fill: rgb(231, 138, 195);"></circle><circle cx="10" cy="373.75" r="7" style="fill: rgb(231, 138, 195);"></circle><circle cx="10" cy="373.75" r="7" style="fill: rgb(231, 138, 195);"></circle><circle cx="10" cy="373.75" r="7" style="fill: rgb(231, 138, 195);"></circle><circle cx="10" cy="373.75" r="7" style="fill: rgb(231, 138, 195);"></circle><circle cx="10" cy="373.75" r="7" style="fill: rgb(231, 138, 195);"></circle><text x="25" y="373.75" text-anchor="left" style="fill: rgb(231, 138, 195); alignment-baseline: middle;">Search</text><text x="25" y="373.75" text-anchor="left" style="fill: rgb(231, 138, 195); alignment-baseline: middle;">Search</text><text x="25" y="373.75" text-anchor="left" style="fill: rgb(231, 138, 195); alignment-baseline: middle;">Search</text><text x="25" y="373.75" text-anchor="left" style="fill: rgb(231, 138, 195); alignment-baseline: middle;">Search</text><text x="25" y="373.75" text-anchor="left" style="fill: rgb(231, 138, 195); alignment-baseline: middle;">Search</text><text x="25" y="373.75" text-anchor="left" style="fill: rgb(231, 138, 195); alignment-baseline: middle;">Search</text><path fill="none" stroke="#a6d854" stroke-width="3" d="M0,240.2205360653293L172.6213016874824,182.82078281264828L550,93.58809466781756"></path><circle fill="#a6d854" stroke="none" cx="0" cy="240.2205360653293" r="3"></circle><circle fill="#a6d854" stroke="none" cx="172.6213016874824" cy="182.82078281264828" r="3"></circle><circle fill="#a6d854" stroke="none" cx="550" cy="93.58809466781756" r="3"></circle><circle cx="257.5" cy="323.75" r="7" style="fill: rgb(166, 216, 84);"></circle><circle cx="257.5" cy="323.75" r="7" style="fill: rgb(166, 216, 84);"></circle><circle cx="257.5" cy="323.75" r="7" style="fill: rgb(166, 216, 84);"></circle><circle cx="257.5" cy="323.75" r="7" style="fill: rgb(166, 216, 84);"></circle><circle cx="257.5" cy="323.75" r="7" style="fill: rgb(166, 216, 84);"></circle><circle cx="257.5" cy="323.75" r="7" style="fill: rgb(166, 216, 84);"></circle><text x="272.5" y="323.75" text-anchor="left" style="fill: rgb(166, 216, 84); alignment-baseline: middle;">Simple Objects w/ PBT</text><text x="272.5" y="323.75" text-anchor="left" style="fill: rgb(166, 216, 84); alignment-baseline: middle;">Simple Objects w/ PBT</text><text x="272.5" y="323.75" text-anchor="left" style="fill: rgb(166, 216, 84); alignment-baseline: middle;">Simple Objects w/ PBT</text><text x="272.5" y="323.75" text-anchor="left" style="fill: rgb(166, 216, 84); alignment-baseline: middle;">Simple Objects w/ PBT</text><text x="272.5" y="323.75" text-anchor="left" style="fill: rgb(166, 216, 84); alignment-baseline: middle;">Simple Objects w/ PBT</text><text x="272.5" y="323.75" text-anchor="left" style="fill: rgb(166, 216, 84); alignment-baseline: middle;">Simple Objects w/ PBT</text><path fill="none" stroke="#ffd92f" stroke-width="3" d="M0,239.80043293760366L172.6213016874824,153.22375824185755L550,29.314846867529244"></path><circle fill="#ffd92f" stroke="none" cx="0" cy="239.80043293760366" r="3"></circle><circle fill="#ffd92f" stroke="none" cx="172.6213016874824" cy="153.22375824185755" r="3"></circle><circle fill="#ffd92f" stroke="none" cx="550" cy="29.314846867529244" r="3"></circle><circle cx="257.5" cy="348.75" r="7" style="fill: rgb(255, 217, 47);"></circle><circle cx="257.5" cy="348.75" r="7" style="fill: rgb(255, 217, 47);"></circle><circle cx="257.5" cy="348.75" r="7" style="fill: rgb(255, 217, 47);"></circle><circle cx="257.5" cy="348.75" r="7" style="fill: rgb(255, 217, 47);"></circle><circle cx="257.5" cy="348.75" r="7" style="fill: rgb(255, 217, 47);"></circle><circle cx="257.5" cy="348.75" r="7" style="fill: rgb(255, 217, 47);"></circle><text x="272.5" y="348.75" text-anchor="left" style="fill: rgb(255, 217, 47); alignment-baseline: middle;">Complex Objects w/ PBT</text><text x="272.5" y="348.75" text-anchor="left" style="fill: rgb(255, 217, 47); alignment-baseline: middle;">Complex Objects w/ PBT</text><text x="272.5" y="348.75" text-anchor="left" style="fill: rgb(255, 217, 47); alignment-baseline: middle;">Complex Objects w/ PBT</text><text x="272.5" y="348.75" text-anchor="left" style="fill: rgb(255, 217, 47); alignment-baseline: middle;">Complex Objects w/ PBT</text><text x="272.5" y="348.75" text-anchor="left" style="fill: rgb(255, 217, 47); alignment-baseline: middle;">Complex Objects w/ PBT</text><text x="272.5" y="348.75" text-anchor="left" style="fill: rgb(255, 217, 47); alignment-baseline: middle;">Complex Objects w/ PBT</text><path fill="none" stroke="#e5c494" stroke-width="3" d="M0,233.30781502085603L172.6213016874824,182.54999344718658L550,0"></path><circle fill="#e5c494" stroke="none" cx="0" cy="233.30781502085603" r="3"></circle><circle fill="#e5c494" stroke="none" cx="172.6213016874824" cy="182.54999344718658" r="3"></circle><circle fill="#e5c494" stroke="none" cx="550" cy="0" r="3"></circle><circle cx="257.5" cy="373.75" r="7" style="fill: rgb(229, 196, 148);"></circle><circle cx="257.5" cy="373.75" r="7" style="fill: rgb(229, 196, 148);"></circle><circle cx="257.5" cy="373.75" r="7" style="fill: rgb(229, 196, 148);"></circle><circle cx="257.5" cy="373.75" r="7" style="fill: rgb(229, 196, 148);"></circle><circle cx="257.5" cy="373.75" r="7" style="fill: rgb(229, 196, 148);"></circle><circle cx="257.5" cy="373.75" r="7" style="fill: rgb(229, 196, 148);"></circle><text x="272.5" y="373.75" text-anchor="left" style="fill: rgb(229, 196, 148); alignment-baseline: middle;">Search w/ PBT</text><text x="272.5" y="373.75" text-anchor="left" style="fill: rgb(229, 196, 148); alignment-baseline: middle;">Search w/ PBT</text><text x="272.5" y="373.75" text-anchor="left" style="fill: rgb(229, 196, 148); alignment-baseline: middle;">Search w/ PBT</text><text x="272.5" y="373.75" text-anchor="left" style="fill: rgb(229, 196, 148); alignment-baseline: middle;">Search w/ PBT</text><text x="272.5" y="373.75" text-anchor="left" style="fill: rgb(229, 196, 148); alignment-baseline: middle;">Search w/ PBT</text><text x="272.5" y="373.75" text-anchor="left" style="fill: rgb(229, 196, 148); alignment-baseline: middle;">Search w/ PBT</text></g></svg>